,
.   http://www.scenetime.com/signup.php  ---&gt;  Hottest scene tracker on the net !!!  

    Join Now   http://www.scenetime.com/signup.php

    seed back for speed


 



...................................NFO:.................................................[align=center][img]http://i.imgur.com/SjsCY.jpg[/img]

[IMG]http://i796.photobucket.com/albums/yy246/jungledave7080/twisted/PresInfoRaw-1.png[/IMG]

Complete name : 200 MPH [2011] Dvdrip - PRESTiGE.avi 
Format : AVI 
Format/Info : Audio Video Interleave 
File size : 701 MiB 
Duration : 1h 28mn 
Overall bit rate : 1 109 Kbps IMDB: http://www.imdb.com/title/tt1823051/
Encoder:[color=#6600CC][b][i]Twisted[/i][/b][/color]
Source: 100mph 2011 dvd5

[IMG]http://i796.photobucket.com/albums/yy246/jungledave7080/twisted/PresVidRaw-1.png[/IMG]

ID : 0 
Format : MPEG-4 Visual 
Format profile : Advanced Simple@L5 
Format settings, BVOP : 2 
Format settings, QPel : No 
Format settings, GMC : No warppoints 
Format settings, Matrix : Default (H.263) 
Muxing mode : Packed bitstream 
Codec ID : XVID 
Codec ID/Hint : XviD 
Duration : 1h 28mn 
Bit rate : 971 Kbps 
Width : 720 pixels 
Height : 400 pixels 
Display aspect ratio : 16:9 
Frame rate : 25.000 fps 
Color space : YUV 
Chroma subsampling : 4:2:0 
Bit depth : 8 bits 
Scan type : Progressive 
Compression mode : Lossy 
Bits/(Pixel*Frame) : 0.135 
Stream size : 614 MiB (88%) 
Writing library : XviD 63 


[IMG]http://i796.photobucket.com/albums/yy246/jungledave7080/twisted/PresAudRaw-1.png[/IMG]

ID : 1 
Format : MPEG Audio 
Format version : Version 1 
Format profile : Layer 3 
Mode : Joint stereo 
Mode extension : MS Stereo 
Codec ID : 55 
Codec ID/Hint : MP3 
Duration : 1h 28mn 
Bit rate mode : Constant 
Bit rate : 128 Kbps 
Channel(s) : 2 channels 
Sampling rate : 44.1 KHz 
Compression mode : Lossy 
Delay relative to video : 26ms 
Stream size : 80.9 MiB (12%) 
Alignment : Split accross interleaves 
Interleave, duration : 40 ms (1.00 video frame) 
Interleave, preload duration : 500 ms


[IMG]http://i796.photobucket.com/albums/yy246/jungledave7080/twisted/PresPlotRaw-1.png[/IMG]

An amateur racer gets involved in illegal street racing after the death of his brother. 


[IMG]http://i796.photobucket.com/albums/yy246/jungledave7080/twisted/PresScrnRaw-1.png[/IMG]

[IMG]http://i.imgur.com/BVRy7.png[/IMG]
[IMG]http://i.imgur.com/I7eku.png[/IMG]
[IMG]http://i.imgur.com/F2yr1.png[/IMG]
[IMG]http://i.imgur.com/12C3I.png[/IMG]


[IMG]http://i796.photobucket.com/albums/yy246/jungledave7080/twisted/PresNoteRaw-1.png[/IMG]

[color=#FF0000][b]WE DONT RELEASE EVERYTHING TO OTHERS SITES YOU WANT MORE OF OUR STUFF COME FIND US AT .......[/b][/color]
[color=#FF0000][b]WE ARE LOOKING FOR SUPPLIERS BLURAY CAM R5 PRE RETAIL DVD GOT SOMETHING WE MIGHT LIKE WHEN YOU FIND US TELL US.......[/b][/color]


Greets going out to

| Bigguy | DiLLoN | Thorn | Flawl3ss | Imagine | CTFX | BMB | akosipalos | HiTM4N | PA4U2C |


[img]http://i.imgur.com/YvsDx.png[/img][/align]